<?xml version="1.0" standalone="no"?><!DOCTYPE svg PUBLIC "-//W3C//DTD SVG 1.1//EN" "http://www.w3.org/Graphics/SVG/1.1/DTD/svg11.dtd"><svg t="1752479159947" class="icon" viewBox="0 0 1024 1024" version="1.1" xmlns="http://www.w3.org/2000/svg" p-id="2783" xmlns:xlink="http://www.w3.org/1999/xlink" width="200" height="200"><path d="M597.333333 128h-170.666666a42.666667 42.666667 0 0 0-42.666667 42.666667v42.666666h256V170.666667a42.666667 42.666667 0 0 0-37.674667-42.368L597.333333 128z m0 298.666667a42.666667 42.666667 0 0 1 42.666667 42.666666v256a42.666667 42.666667 0 0 1-85.333333 0v-256a42.666667 42.666667 0 0 1 42.666666-42.666666z m-170.666666 0a42.666667 42.666667 0 0 1 42.666666 42.666666v256a42.666667 42.666667 0 0 1-85.333333 0v-256a42.666667 42.666667 0 0 1 42.666667-42.666666z m341.333333-128H256v554.666666a42.666667 42.666667 0 0 0 37.674667 42.368L298.666667 896h426.666666a42.666667 42.666667 0 0 0 42.666667-42.666667V298.666667z m-170.666667-256a128 128 0 0 1 128 128v42.666666h170.666667a42.666667 42.666667 0 0 1 42.368 37.674667L938.666667 256a42.666667 42.666667 0 0 1-42.666667 42.666667h-42.666667v554.666666a128 128 0 0 1-120.490666 127.786667L725.333333 981.333333H298.666667a128 128 0 0 1-128-128V298.666667H128a42.666667 42.666667 0 0 1-42.368-37.674667L85.333333 256a42.666667 42.666667 0 0 1 42.666667-42.666667h170.666667V170.666667a128 128 0 0 1 120.490666-127.786667L426.666667 42.666667h170.666666z" fill="#ffffff" p-id="2784"></path></svg>